<?xml version="1.0" encoding="iso-8859-1"?>
<!-- Generator: Adobe Illustrator 19.0.0, SVG Export Plug-In . SVG Version: 6.00 Build 0)  -->
<svg version="1.1" id="Layer_1" xmlns="http://www.w3.org/2000/svg" xmlns:xlink="http://www.w3.org/1999/xlink" x="0px" y="0px"
	 viewBox="0 0 512 512" style="enable-background:new 0 0 512 512;" xml:space="preserve">
<path style="fill:#7FD5E0;" d="M464.935,394.525v107.841h-363.95c-14.879,0-28.36-6.034-38.129-15.791
	c-9.757-9.757-15.791-23.237-15.791-38.129c0-29.785,24.149-53.92,53.92-53.92H464.935z"/>
<path style="fill:#B1E9F9;" d="M464.935,9.624v384.902h-363.95c-29.772,0-53.92,24.136-53.92,53.92V63.531
	c0-14.892,6.034-28.36,15.791-38.117c9.77-9.757,23.25-15.791,38.129-15.791C100.985,9.624,464.935,9.624,464.935,9.624z"/>
<path style="fill:#7FD5E0;" d="M100.985,9.624v384.902c-29.772,0-53.92,24.136-53.92,53.92V63.531
	c0-14.892,6.034-28.36,15.791-38.117C72.626,15.657,86.106,9.624,100.985,9.624z"/>
<path style="fill:#EAE2DC;" d="M424.495,394.525v70.61H53.214l-3.325,0.603c-1.836-5.431-2.824-11.246-2.824-17.293
	c0-4.801,0.629-9.462,1.81-13.904c6.137-23.045,27.14-40.017,52.11-40.017H424.495z"/>
<path style="fill:#D6D0CC;" d="M424.495,394.525v40.017H48.875c6.137-23.045,27.14-40.017,52.11-40.017H424.495z"/>
<path style="fill:#E0C46A;" d="M422.569,93.906v214.192c-23.276,0-42.148,18.859-42.148,42.135H187.425
	c0-23.276-18.872-42.135-42.148-42.135V93.906c23.276,0,42.148-18.872,42.148-42.148h192.997
	C380.421,75.034,399.293,93.906,422.569,93.906z"/>
<path style="fill:#F97177;" d="M283.923,174.531c0-20.722,16.844-37.521,37.622-37.521c25.973,0,47.029,20.998,47.029,46.902
	c0,32.379-45.298,64.034-84.651,81.076c-39.353-17.041-84.651-48.697-84.651-81.076c0-25.904,21.056-46.902,47.029-46.902
	C267.079,137.009,283.923,153.809,283.923,174.531z"/>
<path d="M464.935,0c0,0-364.048,0.003-364.099,0.004c-16.905,0.039-32.804,6.64-44.79,18.608
	c-12.001,12.001-18.61,27.956-18.61,44.925v384.915c0,6.984,1.121,13.841,3.333,20.378c0.001,0.004,0.003,0.009,0.004,0.013
	c3.122,9.187,8.404,17.676,15.279,24.552C68.067,505.392,84.025,512,100.985,512h363.95c5.319,0,9.629-4.311,9.629-9.629V9.629
	C474.564,4.311,470.254,0,464.935,0z M69.659,32.233c6.056-6.047,13.549-10.119,21.7-11.918v58.412c0,5.318,4.31,9.629,9.629,9.629
	s9.629-4.311,9.629-9.629v-59.47h344.69v365.645H110.618V319.43c0-5.318-4.31-9.629-9.629-9.629c-5.319,0-9.629,4.311-9.629,9.629
	v66.2c-13.379,2.041-25.389,8.279-34.667,17.311V63.536C56.693,51.711,61.3,40.593,69.659,32.233z M455.307,492.743H100.985
	c-11.821,0-22.947-4.608-31.32-12.97c-4.792-4.793-8.477-10.71-10.654-17.113c-1.537-4.546-2.317-9.327-2.317-14.208
	c0-24.422,19.87-44.292,44.292-44.292h313.881v51.353H91.678c-5.319,0-9.629,4.311-9.629,9.629c0,5.318,4.31,9.629,9.629,9.629
	h332.817c5.319,0,9.629-4.311,9.629-9.629v-60.981h21.183V492.743z"/>
<path d="M100.989,296.323c5.319,0,9.629-4.311,9.629-9.629V163.453c0-5.318-4.31-9.629-9.629-9.629
	c-5.319,0-9.629,4.311-9.629,9.629v123.242C91.36,292.014,95.67,296.323,100.989,296.323z"/>
<path d="M100.989,142.273c5.319,0,9.629-4.311,9.629-9.629v-24.391c0-5.318-4.31-9.629-9.629-9.629
	c-5.319,0-9.629,4.311-9.629,9.629v24.391C91.36,137.962,95.67,142.273,100.989,142.273z"/>
<path d="M145.277,317.732c17.931,0,32.519,14.582,32.519,32.506c0,5.318,4.31,9.629,9.629,9.629h141.759
	c5.319,0,9.629-4.311,9.629-9.629c0-5.318-4.31-9.629-9.629-9.629H196.156c-3.936-20.838-20.408-37.301-41.25-41.238v-196.73
	c20.843-3.936,37.313-20.408,41.25-41.25h175.535c3.936,20.843,20.408,37.314,41.25,41.25v196.73
	c-20.843,3.935-37.313,20.4-41.25,41.238h-10.411c-5.319,0-9.629,4.311-9.629,9.629c0,5.318,4.31,9.629,9.629,9.629h19.142
	c5.319,0,9.629-4.311,9.629-9.629c0-17.923,14.588-32.506,32.519-32.506c5.319,0,9.629-4.311,9.629-9.629V93.911
	c0-5.318-4.31-9.629-9.629-9.629c-17.931,0-32.519-14.588-32.519-32.519c0-5.318-4.31-9.629-9.629-9.629H187.425
	c-5.319,0-9.629,4.311-9.629,9.629c0,17.931-14.588,32.519-32.519,32.519c-5.319,0-9.629,4.311-9.629,9.629v214.192
	C135.648,313.421,139.958,317.732,145.277,317.732z"/>
<path d="M378.203,183.917c0-31.171-25.417-56.53-56.658-56.53c-15.333,0-28.984,7.327-37.622,18.654
	c-8.639-11.327-22.29-18.654-37.624-18.654c-31.24,0-56.658,25.359-56.658,56.53c0,17.762,10.393,35.783,30.889,53.562
	c15.665,13.589,36.82,26.498,59.565,36.349c1.221,0.529,2.524,0.793,3.826,0.793c1.302,0,2.605-0.264,3.826-0.793
	c15.954-6.91,31.374-15.457,44.592-24.719c4.356-3.052,5.413-9.056,2.361-13.411c-3.052-4.355-9.055-5.411-13.411-2.361
	c-11.117,7.789-23.962,15.046-37.367,21.121c-36.843-16.729-75.024-45.246-75.024-70.543c0-20.553,16.777-37.273,37.4-37.273
	c15.435,0,27.995,12.513,27.995,27.894c0,5.318,4.31,9.629,9.629,9.629c5.319,0,9.629-4.311,9.629-9.629
	c0-15.38,12.557-27.894,27.994-27.894c20.622,0,37.4,16.72,37.4,37.273c0,9.028-4.841,18.935-14.385,29.446
	c-3.575,3.936-3.283,10.027,0.655,13.601c3.935,3.574,10.027,3.281,13.601-0.655C371.68,212.143,378.203,197.881,378.203,183.917z"
	/>
<g>
</g>
<g>
</g>
<g>
</g>
<g>
</g>
<g>
</g>
<g>
</g>
<g>
</g>
<g>
</g>
<g>
</g>
<g>
</g>
<g>
</g>
<g>
</g>
<g>
</g>
<g>
</g>
<g>
</g>
</svg>
